<?xml version="1.0" encoding="utf-8"?>
<!-- Generator: Adobe Illustrator 19.0.0, SVG Export Plug-In . SVG Version: 6.00 Build 0)  -->
<svg version="1.1" id="Layer_1" xmlns="http://www.w3.org/2000/svg" xmlns:xlink="http://www.w3.org/1999/xlink" x="0px" y="0px"
	 width="1400px" height="1400px" viewBox="0 0 1400 1400" enable-background="new 0 0 1400 1400" xml:space="preserve">
<g id="XMLID_1_">
	<linearGradient id="XMLID_3_" gradientUnits="userSpaceOnUse" x1="141.9442" y1="1258.0558" x2="1426.6648" y2="-26.6648">
		<stop  offset="0" style="stop-color:#DADBDC"/>
		<stop  offset="0.6828" style="stop-color:#FFFFFF"/>
	</linearGradient>
	<rect id="XMLID_3160_" fill="url(#XMLID_3_)" width="1400" height="1400"/>
	<g id="XMLID_12213_">
		<defs>
			<rect id="XMLID_12211_" width="1400" height="1400"/>
		</defs>
		<clipPath id="XMLID_4_">
			<use xlink:href="#XMLID_12211_"  overflow="visible"/>
		</clipPath>
		<g id="XMLID_12209_" clip-path="url(#XMLID_4_)">
			<g id="XMLID_12298_">
				<linearGradient id="XMLID_5_" gradientUnits="userSpaceOnUse" x1="855.8347" y1="954.8446" x2="1404.8896" y2="954.8446">
					<stop  offset="0" style="stop-color:#BCBABA"/>
					<stop  offset="1" style="stop-color:#FFFFFF"/>
				</linearGradient>
				<path id="XMLID_12328_" fill="url(#XMLID_5_)" d="M1404.9,1262.8c0,0-8.6-4.6-23.6-12.7c-3.8-2-7.9-4.3-12.4-6.7
					c-4.5-2.4-9.4-5.1-14.6-8c-10.5-5.8-22.3-12.3-35.1-19.5c-25.7-14.3-55.8-31-87.9-48.9c-8-4.5-16.2-9.1-24.5-13.7
					c-8.3-4.7-16.7-9.4-25.1-14.2c-16.9-9.5-34-19.2-51.2-28.9c-34.3-19.4-68.6-38.8-100.8-57c-32.2-18.3-62.2-35.3-87.9-49.9
					c-51.5-29.2-85.8-48.4-85.8-48.4s34.3-19.2,85.8-48.4c25.7-14.6,55.8-31.6,87.9-49.9c32.2-18.2,66.5-37.6,100.8-57
					c17.2-9.7,34.3-19.4,51.2-28.9c8.4-4.8,16.8-9.5,25.1-14.2c8.3-4.6,16.5-9.2,24.5-13.7c32.2-17.9,62.2-34.6,87.9-48.9
					c12.9-7.1,24.7-13.7,35.1-19.5c5.2-2.9,10.1-5.6,14.6-8c4.5-2.4,8.7-4.7,12.4-6.7c15-8.1,23.6-12.7,23.6-12.7V1262.8z"/>
			</g>
			<g id="XMLID_12290_">
				<linearGradient id="XMLID_6_" gradientUnits="userSpaceOnUse" x1="966.8458" y1="681.8173" x2="1296.8788" y2="681.8173">
					<stop  offset="0" style="stop-color:#BCBABA"/>
					<stop  offset="1" style="stop-color:#FFFFFF"/>
				</linearGradient>
				<path id="XMLID_12320_" fill="url(#XMLID_6_)" d="M1296.9,866.6c0,0-5.2-2.7-14.2-7.5c-4.5-2.4-10-5.4-16.3-8.9
					c-6.3-3.5-13.4-7.4-21.1-11.7c-15.5-8.6-33.5-18.7-52.9-29.5c-19.3-10.9-40-22.5-60.6-34.2c-82.5-46.5-165-93-165-93
					s82.5-46.5,165-93c20.6-11.6,41.3-23.3,60.6-34.2c19.3-10.8,37.4-20.8,52.9-29.5c7.7-4.3,14.8-8.2,21.1-11.7
					c6.3-3.5,11.8-6.6,16.3-8.9c9-4.8,14.2-7.5,14.2-7.5V866.6z"/>
			</g>
			<g id="XMLID_3799_">
				<linearGradient id="XMLID_7_" gradientUnits="userSpaceOnUse" x1="425.2916" y1="646.2147" x2="593.3084" y2="646.2147">
					<stop  offset="0" style="stop-color:#BCBABA"/>
					<stop  offset="1" style="stop-color:#FFFFFF"/>
				</linearGradient>
				<path id="XMLID_12216_" fill="url(#XMLID_7_)" d="M425.3,551.9c0,0,10.5,5.7,26.3,14.3c15.8,8.9,36.8,20.7,57.8,32.5
					c42,23.7,84,47.5,84,47.5s-42,23.7-84,47.5c-21,11.8-42,23.6-57.8,32.5c-15.8,8.6-26.3,14.3-26.3,14.3V551.9z"/>
			</g>
			<g id="XMLID_12322_">
				<linearGradient id="XMLID_8_" gradientUnits="userSpaceOnUse" x1="303.7795" y1="477.7969" x2="657.8149" y2="477.7969">
					<stop  offset="0" style="stop-color:#BCBABA"/>
					<stop  offset="1" style="stop-color:#FFFFFF"/>
				</linearGradient>
				<path id="XMLID_12346_" fill="url(#XMLID_8_)" d="M657.8,675.6c0,0-5.5-2.9-15.2-7.9c-1.2-0.6-2.5-1.3-3.8-2
					c-0.7-0.3-1.4-0.7-2.1-1.1c-0.7-0.4-1.4-0.8-2.1-1.2c-2.9-1.6-6.1-3.3-9.4-5.2c-6.7-3.7-14.3-7.9-22.6-12.5
					c-8.3-4.6-17.3-9.6-26.8-14.8c-9.5-5.3-19.5-10.8-29.9-16.7c-20.7-11.7-42.9-24.1-65-36.6c-44.3-25-88.5-50-121.7-68.8
					c-33.2-18.7-55.3-31.1-55.3-31.1s22.1-12.5,55.3-31.1c33.2-18.8,77.4-43.8,121.7-68.8c22.1-12.5,44.3-24.9,65-36.6
					c10.4-5.9,20.4-11.4,29.9-16.7c9.5-5.3,18.5-10.2,26.8-14.8c8.3-4.6,15.9-8.8,22.6-12.5c3.4-1.9,6.5-3.6,9.4-5.2
					c0.7-0.4,1.4-0.8,2.1-1.2c0.7-0.4,1.4-0.7,2.1-1.1c1.3-0.7,2.6-1.4,3.8-2c9.7-5,15.2-7.9,15.2-7.9V675.6z"/>
			</g>
			<g id="XMLID_12282_">
				<linearGradient id="XMLID_9_" gradientUnits="userSpaceOnUse" x1="657.8148" y1="534.2249" x2="921.8413" y2="534.2249">
					<stop  offset="0" style="stop-color:#BCBABA"/>
					<stop  offset="1" style="stop-color:#FFFFFF"/>
				</linearGradient>
				<path id="XMLID_12312_" fill="url(#XMLID_9_)" d="M921.8,682.5c0,0-66-37-132-73.9c-66-37.2-132-74.3-132-74.3s66-37.2,132-74.3
					c66-37,132-73.9,132-73.9V682.5z"/>
			</g>
			<g id="XMLID_12218_">
				<linearGradient id="XMLID_10_" gradientUnits="userSpaceOnUse" x1="602.3093" y1="427.8932" x2="1139.363" y2="427.8932">
					<stop  offset="0" style="stop-color:#BCBABA"/>
					<stop  offset="1" style="stop-color:#FFFFFF"/>
				</linearGradient>
				<path id="XMLID_12248_" fill="url(#XMLID_10_)" d="M1139.4,728.1c0,0-8.4-4.4-23.1-12.2c-7.3-3.9-16.3-8.6-26.5-14
					c-1.3-0.7-2.6-1.4-3.9-2.1c-1.3-0.7-2.7-1.5-4-2.2c-2.7-1.5-5.5-3.1-8.4-4.6c-5.7-3.2-11.8-6.5-18.1-10
					c-25.2-14-54.5-30.3-86-47.8c-15.7-8.8-32-17.8-48.5-27.2c-16.5-9.3-33.3-18.8-50.1-28.3c-67.1-38-134.3-75.9-184.6-104.4
					c-25.2-14.2-46.2-26.1-60.8-34.3c-14.7-8.2-23.1-13-23.1-13s8.4-4.7,23.1-13c14.7-8.3,35.7-20.1,60.8-34.3
					c50.3-28.5,117.5-66.4,184.6-104.4c16.8-9.5,33.6-19,50.1-28.3c16.5-9.4,32.8-18.4,48.5-27.2c31.5-17.5,60.8-33.8,86-47.8
					c6.3-3.5,12.3-6.8,18.1-10c2.9-1.6,5.7-3.1,8.4-4.6c1.4-0.8,2.7-1.5,4-2.2c1.3-0.7,2.6-1.4,3.9-2.1c10.2-5.4,19.1-10.1,26.5-14
					c14.7-7.7,23.1-12.2,23.1-12.2V728.1z"/>
			</g>
			<g id="XMLID_12314_">
				<linearGradient id="XMLID_11_" gradientUnits="userSpaceOnUse" x1="-32.2541" y1="219.7711" x2="648.814" y2="219.7711">
					<stop  offset="0" style="stop-color:#BCBABA"/>
					<stop  offset="1" style="stop-color:#FFFFFF"/>
				</linearGradient>
				<path id="XMLID_12343_" fill="url(#XMLID_11_)" d="M-32.3-162c0,0,10.6,5.8,29.3,15.9c9.3,5.1,20.6,11.1,33.6,18.3
					c13,7.2,27.6,15.2,43.6,24.1c16,8.8,33.3,18.4,51.5,28.6c4.6,2.5,9.2,5.1,13.9,7.7c4.7,2.6,9.4,5.3,14.2,8
					c9.6,5.4,19.4,10.9,29.4,16.5c39.9,22.5,82.5,46.5,125,70.5c21.3,12,42.6,24,63.5,35.8c21,11.9,41.6,23.5,61.5,34.8
					c39.9,22.6,77.2,43.6,109.1,61.7c63.9,36,106.4,59.9,106.4,59.9s-42.6,24-106.4,59.9c-31.9,18.1-69.2,39.1-109.1,61.7
					c-20,11.3-40.6,23-61.5,34.8c-21,11.8-42.2,23.8-63.5,35.8c-42.6,24-85.1,48-125,70.5c-10,5.6-19.8,11.1-29.4,16.5
					c-4.8,2.7-9.6,5.4-14.2,8c-4.7,2.6-9.3,5.2-13.9,7.7c-18.3,10.1-35.6,19.7-51.5,28.6c-16,8.8-30.6,16.9-43.6,24.1
					c-13,7.2-24.3,13.2-33.6,18.3c-18.6,10.1-29.3,15.9-29.3,15.9V-162z"/>
			</g>
			<g id="XMLID_3162_">
				<linearGradient id="XMLID_12_" gradientUnits="userSpaceOnUse" x1="186.7678" y1="561.8053" x2="549.8041" y2="561.8053">
					<stop  offset="0" style="stop-color:#BCBABA"/>
					<stop  offset="1" style="stop-color:#FFFFFF"/>
				</linearGradient>
				<path id="XMLID_12203_" fill="url(#XMLID_12_)" d="M186.8,357.8c0,0,22.7,12.5,56.7,31.3c8.5,4.7,17.7,9.8,27.5,15.2
					c9.7,5.5,20,11.3,30.7,17.2c21.3,12,44,24.8,66.7,37.5c22.7,12.8,45.4,25.6,66.7,37.6c21.3,12.1,41.1,23.3,58.1,33
					c34,19.2,56.7,32,56.7,32s-22.7,12.8-56.7,32c-17,9.7-36.9,20.9-58.1,33c-21.3,12-44,24.8-66.7,37.6
					c-22.7,12.8-45.4,25.6-66.7,37.5c-10.6,6-20.9,11.8-30.7,17.2c-9.7,5.4-19,10.5-27.5,15.2c-34,18.8-56.7,31.3-56.7,31.3V357.8z"
					/>
			</g>
			<g id="XMLID_3166_">
				<linearGradient id="XMLID_13_" gradientUnits="userSpaceOnUse" x1="453.7945" y1="408.79" x2="621.8113" y2="408.79">
					<stop  offset="0" style="stop-color:#BCBABA"/>
					<stop  offset="1" style="stop-color:#FFFFFF"/>
				</linearGradient>
				<path id="XMLID_12212_" fill="url(#XMLID_13_)" d="M453.8,310.9c0,0,0.7,0.5,1.9,1.4c1.2,0.8,3,2.6,5.3,3.9
					c2.3,1.5,5.1,3.2,8.3,5.3c3.2,2.1,6.8,4.1,10.7,6.5c3.9,2.4,8.2,4.8,12.7,7.5c4.5,2.6,9.3,5.4,14.2,8.2
					c9.8,5.6,20.3,11.6,30.8,17.6c21,11.9,42,23.8,57.8,32.8c15.8,8.9,26.3,14.8,26.3,14.8s-10.5,5.9-26.3,14.8
					c-15.8,8.9-36.8,20.9-57.8,32.8c-10.5,6-21,12-30.8,17.6c-4.9,2.9-9.7,5.6-14.2,8.2c-4.5,2.6-8.8,5.1-12.7,7.5
					c-3.9,2.4-7.5,4.4-10.7,6.5c-3.2,2-6,3.8-8.3,5.3c-2.3,1.3-4.1,3.1-5.3,3.9c-1.2,0.9-1.9,1.4-1.9,1.4V310.9z"/>
			</g>
			<g id="XMLID_5233_">
				<linearGradient id="XMLID_14_" gradientUnits="userSpaceOnUse" x1="339.7831" y1="738.823" x2="579.8071" y2="738.823">
					<stop  offset="0" style="stop-color:#BCBABA"/>
					<stop  offset="1" style="stop-color:#FFFFFF"/>
				</linearGradient>
				<path id="XMLID_12220_" fill="url(#XMLID_14_)" d="M339.8,604.2c0,0,15,8.3,37.5,20.7c5.6,3.1,11.7,6.5,18.2,10.1
					c6.4,3.6,13.2,7.4,20.3,11.3c14.1,7.9,29.1,16.4,44.1,24.8c30,17,60,33.9,82.5,46.7c22.5,12.7,37.5,21.1,37.5,21.1
					s-15,8.4-37.5,21.1c-22.5,12.7-52.5,29.7-82.5,46.7c-15,8.4-30,16.9-44.1,24.8c-7,3.9-13.8,7.7-20.3,11.3
					c-6.4,3.6-12.5,6.9-18.2,10.1c-22.5,12.4-37.5,20.7-37.5,20.7V604.2z"/>
			</g>
			<g id="XMLID_5334_">
				<linearGradient id="XMLID_15_" gradientUnits="userSpaceOnUse" x1="405.7897" y1="873.8365" x2="612.8104" y2="873.8365">
					<stop  offset="0" style="stop-color:#BCBABA"/>
					<stop  offset="1" style="stop-color:#FFFFFF"/>
				</linearGradient>
				<path id="XMLID_12224_" fill="url(#XMLID_15_)" d="M405.8,758.1c0,0,3.2,1.7,8.9,4.8c2.8,1.5,6.3,3.4,10.2,5.5
					c3.9,2.2,8.4,4.5,13.2,7.2c9.7,5.4,21,11.7,33.2,18.5c6.1,3.4,12.3,6.9,18.7,10.5c6.4,3.6,12.8,7.2,19.3,10.9
					c51.8,29.2,103.5,58.4,103.5,58.4s-51.8,29.2-103.5,58.4c-6.5,3.6-12.9,7.3-19.3,10.9c-6.4,3.6-12.6,7.1-18.7,10.5
					c-12.1,6.8-23.5,13.1-33.2,18.5c-4.9,2.7-9.3,5.1-13.2,7.2c-3.9,2.1-7.4,4-10.2,5.5c-5.7,3.1-8.9,4.8-8.9,4.8V758.1z"/>
			</g>
			<g id="XMLID_5335_">
				<linearGradient id="XMLID_16_" gradientUnits="userSpaceOnUse" x1="627.8119" y1="654.8146" x2="777.8269" y2="654.8146">
					<stop  offset="0" style="stop-color:#BCBABA"/>
					<stop  offset="1" style="stop-color:#FFFFFF"/>
				</linearGradient>
				<path id="XMLID_12228_" fill="url(#XMLID_16_)" d="M627.8,570.6c0,0,2.3,1.3,6.4,3.5c2.1,1.1,4.5,2.5,7.4,4
					c2.9,1.6,6.1,3.3,9.6,5.3c14.1,7.9,32.8,18.4,51.6,29c37.5,21.2,75,42.3,75,42.3s-37.5,21.2-75,42.3
					c-18.8,10.5-37.5,21.1-51.6,29c-3.5,2-6.7,3.8-9.6,5.3c-2.9,1.6-5.3,2.9-7.4,4c-4.1,2.2-6.4,3.5-6.4,3.5V570.6z"/>
			</g>
			<g id="XMLID_5338_">
				<linearGradient id="XMLID_17_" gradientUnits="userSpaceOnUse" x1="303.7795" y1="1297.7456" x2="402.7894" y2="1297.7456">
					<stop  offset="0" style="stop-color:#BCBABA"/>
					<stop  offset="1" style="stop-color:#FFFFFF"/>
				</linearGradient>
				<path id="XMLID_5342_" fill="url(#XMLID_17_)" d="M303.8,1242.2c0,0,1.5,0.8,4.3,2.3c1.4,0.7,3,1.6,4.9,2.7c1.9,1,4,2.2,6.3,3.5
					c9.3,5.2,21.7,12.2,34,19.1c24.8,14,49.5,27.9,49.5,27.9s-24.8,14-49.5,27.9c-12.4,7-24.8,13.9-34,19.1
					c-2.3,1.3-4.4,2.5-6.3,3.5c-1.9,1-3.5,1.9-4.9,2.7c-2.7,1.5-4.3,2.3-4.3,2.3V1242.2z"/>
			</g>
			<g id="XMLID_12152_">
				<linearGradient id="XMLID_18_" gradientUnits="userSpaceOnUse" x1="380.2871" y1="105.3983" x2="479.297" y2="105.3983">
					<stop  offset="0" style="stop-color:#BCBABA"/>
					<stop  offset="1" style="stop-color:#FFFFFF"/>
				</linearGradient>
				<path id="XMLID_12202_" fill="url(#XMLID_18_)" d="M380.3,49.8c0,0,1.5,0.8,4.3,2.3c1.4,0.7,3,1.6,4.9,2.7c1.9,1,4,2.2,6.3,3.5
					c9.3,5.2,21.7,12.2,34,19.1c24.8,14,49.5,27.9,49.5,27.9s-24.8,14-49.5,27.9c-12.4,7-24.8,13.9-34,19.1
					c-2.3,1.3-4.4,2.5-6.3,3.5c-1.9,1-3.5,1.9-4.9,2.7c-2.7,1.5-4.3,2.3-4.3,2.3V49.8z"/>
			</g>
			<g id="XMLID_5336_">
				<linearGradient id="XMLID_19_" gradientUnits="userSpaceOnUse" x1="542.3033" y1="873.8365" x2="767.3258" y2="873.8365">
					<stop  offset="0" style="stop-color:#BCBABA"/>
					<stop  offset="1" style="stop-color:#FFFFFF"/>
				</linearGradient>
				<path id="XMLID_12232_" fill="url(#XMLID_19_)" d="M542.3,747.8c0,0,14.1,7.7,35.2,19.1c5.3,2.9,11,6,17,9.4
					c6,3.4,12.4,7,19,10.7c13.2,7.4,27.2,15.3,41.3,23.2c28.1,15.9,56.3,31.9,77.4,43.8c21.1,11.9,35.2,19.8,35.2,19.8
					s-14.1,7.9-35.2,19.8c-21.1,12-49.2,27.9-77.4,43.8c-14.1,7.9-28.1,15.8-41.3,23.2c-6.6,3.7-13,7.3-19,10.7
					c-6,3.4-11.8,6.5-17,9.4c-21.1,11.5-35.2,19.1-35.2,19.1V747.8z"/>
			</g>
			<g id="XMLID_12166_">
				<linearGradient id="XMLID_20_" gradientUnits="userSpaceOnUse" x1="555.8047" y1="1038.853" x2="789.8281" y2="1038.853">
					<stop  offset="0" style="stop-color:#BCBABA"/>
					<stop  offset="1" style="stop-color:#FFFFFF"/>
				</linearGradient>
				<path id="XMLID_12236_" fill="url(#XMLID_20_)" d="M555.8,906.6c0,0,58.5,33,117,66c29.3,16.6,58.5,33.2,80.4,45.6
					c21.9,12.4,36.6,20.6,36.6,20.6s-14.6,8.3-36.6,20.6c-21.9,12.4-51.2,29-80.4,45.6c-58.5,33-117,66-117,66V906.6z"/>
			</g>
			<g id="XMLID_12210_">
				<linearGradient id="XMLID_21_" gradientUnits="userSpaceOnUse" x1="999.8491" y1="879.837" x2="1113.8605" y2="879.837">
					<stop  offset="0" style="stop-color:#BCBABA"/>
					<stop  offset="1" style="stop-color:#FFFFFF"/>
				</linearGradient>
				<path id="XMLID_12240_" fill="url(#XMLID_21_)" d="M999.8,815.7c0,0,7.1,4,17.8,9.9c2.7,1.5,5.6,3.1,8.6,4.8
					c3.1,1.7,6.3,3.5,9.6,5.4c6.7,3.8,13.8,7.8,20.9,11.8c28.5,16.1,57,32.2,57,32.2s-28.5,16.1-57,32.2c-7.1,4-14.3,8.1-20.9,11.8
					c-3.3,1.9-6.6,3.7-9.6,5.4c-3.1,1.7-6,3.3-8.6,4.8c-10.7,5.9-17.8,9.9-17.8,9.9V815.7z"/>
			</g>
			<g id="XMLID_12214_">
				<linearGradient id="XMLID_22_" gradientUnits="userSpaceOnUse" x1="180.7672" y1="1062.8553" x2="624.8116" y2="1062.8553">
					<stop  offset="0" style="stop-color:#BCBABA"/>
					<stop  offset="1" style="stop-color:#FFFFFF"/>
				</linearGradient>
				<path id="XMLID_12244_" fill="url(#XMLID_22_)" d="M180.8,813.9c0,0,6.9,3.7,19.1,10.2c6.1,3.2,13.4,7.2,21.9,11.7
					c8.5,4.6,18,9.9,28.4,15.6c10.4,5.8,21.7,12,33.6,18.6c6,3.3,12.1,6.7,18.3,10.2c6.3,3.5,12.7,7.1,19.2,10.8
					c26,14.7,53.8,30.3,81.5,46c55.5,31.5,111,63,152.6,86.7c41.6,23.5,69.4,39.2,69.4,39.2s-27.8,15.7-69.4,39.2
					c-41.6,23.6-97.1,55.2-152.6,86.7c-27.8,15.7-55.5,31.3-81.5,46c-6.5,3.7-12.9,7.3-19.2,10.8c-6.3,3.5-12.4,6.9-18.3,10.2
					c-11.9,6.6-23.2,12.8-33.6,18.6c-10.4,5.7-19.9,11.1-28.4,15.6c-8.5,4.5-15.8,8.5-21.9,11.7c-12.1,6.5-19.1,10.2-19.1,10.2
					V813.9z"/>
			</g>
			<g id="XMLID_12222_">
				<linearGradient id="XMLID_23_" gradientUnits="userSpaceOnUse" x1="633.8125" y1="700" x2="981.8473" y2="700">
					<stop  offset="0" style="stop-color:#BCBABA"/>
					<stop  offset="1" style="stop-color:#FFFFFF"/>
				</linearGradient>
				<path id="XMLID_12252_" fill="url(#XMLID_23_)" d="M981.8,895.4c0,0-87-48.2-174-97.1c-21.8-12.3-43.5-24.6-63.9-36.1
					c-20.4-11.6-39.4-22.3-55.7-31.6c-32.6-18.4-54.4-30.7-54.4-30.7s21.8-12.3,54.4-30.7c16.3-9.2,35.3-20,55.7-31.6
					c20.4-11.5,42.1-23.8,63.9-36.1c87-48.9,174-97.1,174-97.1V895.4z"/>
			</g>
			<g id="XMLID_12226_">
				<linearGradient id="XMLID_24_" gradientUnits="userSpaceOnUse" x1="945.8437" y1="741.8233" x2="1164.8656" y2="741.8233">
					<stop  offset="0" style="stop-color:#BCBABA"/>
					<stop  offset="1" style="stop-color:#FFFFFF"/>
				</linearGradient>
				<path id="XMLID_12256_" fill="url(#XMLID_24_)" d="M1164.9,865.1c0,0-54.8-30.8-109.5-61.5c-54.8-30.9-109.5-61.8-109.5-61.8
					s54.8-30.9,109.5-61.8c54.8-30.8,109.5-61.5,109.5-61.5V865.1z"/>
			</g>
			<g id="XMLID_12230_">
				<linearGradient id="XMLID_25_" gradientUnits="userSpaceOnUse" x1="870.8362" y1="1005.8497" x2="1143.8635" y2="1005.8497">
					<stop  offset="0" style="stop-color:#BCBABA"/>
					<stop  offset="1" style="stop-color:#FFFFFF"/>
				</linearGradient>
				<path id="XMLID_12260_" fill="url(#XMLID_25_)" d="M1143.9,1157.7c0,0-4.3-2.1-11.7-5.8c-1.9-0.9-3.9-2-6.2-3.3
					c-2.2-1.2-4.7-2.5-7.3-3.9c-5.2-2.8-11.1-6-17.5-9.6c-25.6-14.3-59.7-33.4-93.9-52.5c-68.3-38.4-136.5-76.8-136.5-76.8
					s68.3-38.4,136.5-76.8c34.1-19.1,68.3-38.2,93.9-52.5c6.4-3.6,12.3-6.8,17.5-9.6c2.6-1.4,5-2.7,7.3-3.9c2.2-1.2,4.3-2.4,6.2-3.3
					c7.5-3.7,11.7-5.8,11.7-5.8V1157.7z"/>
			</g>
			<g id="XMLID_12234_">
				<linearGradient id="XMLID_26_" gradientUnits="userSpaceOnUse" x1="807.8299" y1="1215.8707" x2="1152.8644" y2="1215.8707">
					<stop  offset="0" style="stop-color:#BCBABA"/>
					<stop  offset="1" style="stop-color:#FFFFFF"/>
				</linearGradient>
				<path id="XMLID_12264_" fill="url(#XMLID_26_)" d="M1152.9,1417c0,0-1.3-1-3.9-2.9c-0.6-0.5-1.3-1-2.1-1.6
					c-0.2-0.2-0.4-0.2-0.6-0.5l-0.3-0.2l-0.3-0.3c-0.4-0.4-0.9-0.8-1.3-1.2c-0.9-0.8-1.9-1.7-3-2.7c-0.5-0.5-1.1-1-1.6-1.5l-0.2-0.2
					l-0.1-0.1c0,0.1,0-0.2-0.1-0.2l-0.1,0c-0.1-0.1-0.3-0.2-0.4-0.3c-0.3-0.2-0.6-0.4-0.9-0.6c-1.2-0.8-2.4-1.7-3.7-2.6
					c-0.7-0.5-1.3-0.9-2-1.4c-0.7-0.4-1.4-0.8-2.1-1.3c-2.8-1.8-5.9-3.7-9.2-5.7c-1.6-1-3.3-2.1-5.1-3.1c-1.7-1.1-3.5-2.1-5.4-3.2
					c-3.7-2.1-7.6-4.4-11.6-6.7c-8.1-4.7-16.8-9.7-26.1-15c-9.3-5.3-19-10.8-29.1-16.5c-20.2-11.5-41.8-23.7-63.3-35.9
					c-43.1-24.4-86.3-48.9-118.6-67.2c-32.3-18.2-53.9-30.4-53.9-30.4s21.6-12.2,53.9-30.4c32.3-18.3,75.5-42.8,118.6-67.2
					c21.6-12.2,43.1-24.5,63.3-35.9c10.1-5.7,19.9-11.3,29.1-16.5c9.3-5.2,18-10.3,26.1-15c4-2.3,7.9-4.6,11.6-6.7
					c1.8-1.1,3.6-2.1,5.4-3.2c1.7-1.1,3.4-2.1,5.1-3.1c3.3-2,6.4-3.9,9.2-5.7c0.7-0.4,1.4-0.9,2.1-1.3c0.7-0.5,1.3-1,2-1.4
					c1.3-0.9,2.5-1.8,3.7-2.6c0.3-0.2,0.6-0.4,0.9-0.6c0.1-0.1,0.3-0.2,0.4-0.3l0.1,0c0,0,0-0.2,0.1-0.2l0.1-0.1l0.2-0.2
					c0.6-0.5,1.1-1,1.6-1.5c1.1-1,2-1.8,3-2.7c0.5-0.4,0.9-0.8,1.3-1.2l0.3-0.3l0.3-0.2c0.2-0.2,0.4-0.3,0.6-0.5
					c0.8-0.6,1.5-1.1,2.1-1.6c2.5-1.9,3.9-2.9,3.9-2.9V1417z"/>
			</g>
			<g id="XMLID_12238_">
				<linearGradient id="XMLID_27_" gradientUnits="userSpaceOnUse" x1="420.7912" y1="1215.8706" x2="618.811" y2="1215.8706">
					<stop  offset="0" style="stop-color:#BCBABA"/>
					<stop  offset="1" style="stop-color:#FFFFFF"/>
				</linearGradient>
				<path id="XMLID_12268_" fill="url(#XMLID_27_)" d="M420.8,1105.4c0,0,49.5,27.5,99,55c49.5,27.7,99,55.5,99,55.5
					s-49.5,27.7-99,55.5c-49.5,27.5-99,55-99,55V1105.4z"/>
			</g>
			<g id="XMLID_12242_">
				<linearGradient id="XMLID_28_" gradientUnits="userSpaceOnUse" x1="654.8146" y1="909.8401" x2="948.844" y2="909.8401">
					<stop  offset="0" style="stop-color:#BCBABA"/>
					<stop  offset="1" style="stop-color:#FFFFFF"/>
				</linearGradient>
				<path id="XMLID_12272_" fill="url(#XMLID_28_)" d="M948.8,1074.1c0,0-18.4-10.1-45.9-25.4c-13.8-7.6-29.9-16.6-47.1-26.1
					c-8.6-4.8-17.5-9.7-26.6-14.8c-9-5.1-18.2-10.2-27.4-15.4c-73.5-41.3-147-82.7-147-82.7s73.5-41.3,147-82.7
					c9.2-5.2,18.4-10.3,27.4-15.4c9-5,17.9-10,26.6-14.8c17.2-9.6,33.3-18.5,47.1-26.1c27.6-15.2,45.9-25.4,45.9-25.4V1074.1z"/>
			</g>
			<g id="XMLID_12246_">
				<linearGradient id="XMLID_29_" gradientUnits="userSpaceOnUse" x1="273.7765" y1="786.8278" x2="597.8089" y2="786.8278">
					<stop  offset="0" style="stop-color:#BCBABA"/>
					<stop  offset="1" style="stop-color:#FFFFFF"/>
				</linearGradient>
				<path id="XMLID_12276_" fill="url(#XMLID_29_)" d="M273.8,605.4c0,0,20.3,11.2,50.6,28.1c15.2,8.5,32.9,18.3,51.9,28.9
					c9.5,5.3,19.3,10.8,29.3,16.3c10,5.6,20.1,11.3,30.2,17c81,45.5,162,91.1,162,91.1s-81,45.5-162,91.1
					c-10.1,5.7-20.3,11.4-30.2,17c-10,5.6-19.8,11-29.3,16.3c-19,10.6-36.7,20.4-51.9,28.9c-30.4,16.8-50.6,28.1-50.6,28.1V605.4z"
					/>
			</g>
			<g id="XMLID_12250_">
				<linearGradient id="XMLID_30_" gradientUnits="userSpaceOnUse" x1="720.8212" y1="591.8083" x2="1053.8545" y2="591.8083">
					<stop  offset="0" style="stop-color:#BCBABA"/>
					<stop  offset="1" style="stop-color:#FFFFFF"/>
				</linearGradient>
				<path id="XMLID_12280_" fill="url(#XMLID_30_)" d="M1053.9,778.6c0,0-83.3-46.6-166.5-93.2c-83.3-46.8-166.5-93.6-166.5-93.6
					s83.3-46.8,166.5-93.6c83.3-46.6,166.5-93.2,166.5-93.2V778.6z"/>
			</g>
			<g id="XMLID_12254_">
				<linearGradient id="XMLID_31_" gradientUnits="userSpaceOnUse" x1="681.8173" y1="462.7954" x2="933.8425" y2="462.7954">
					<stop  offset="0" style="stop-color:#BCBABA"/>
					<stop  offset="1" style="stop-color:#FFFFFF"/>
				</linearGradient>
				<path id="XMLID_12284_" fill="url(#XMLID_31_)" d="M933.8,603.5c0,0-15.8-8.6-39.4-21.4c-5.9-3.2-12.3-6.8-19.1-10.6
					c-6.8-3.8-13.9-7.8-21.3-11.9c-14.8-8.3-30.5-17.1-46.3-25.9c-63-35.4-126-70.8-126-70.8s63-35.4,126-70.8
					c15.8-8.8,31.5-17.7,46.3-25.9c7.4-4.1,14.5-8.1,21.3-11.9c6.8-3.8,13.2-7.4,19.1-10.6c23.6-12.9,39.4-21.4,39.4-21.4V603.5z"/>
			</g>
			<g id="XMLID_12258_">
				<linearGradient id="XMLID_32_" gradientUnits="userSpaceOnUse" x1="648.814" y1="138.763" x2="831.8323" y2="138.763">
					<stop  offset="0" style="stop-color:#BCBABA"/>
					<stop  offset="1" style="stop-color:#FFFFFF"/>
				</linearGradient>
				<polygon id="XMLID_12288_" fill="url(#XMLID_32_)" points="831.8,241.5 648.8,138.8 831.8,36 				"/>
			</g>
			<g id="XMLID_12262_">
				<linearGradient id="XMLID_33_" gradientUnits="userSpaceOnUse" x1="36.7528" y1="258.775" x2="339.7831" y2="258.775">
					<stop  offset="0" style="stop-color:#BCBABA"/>
					<stop  offset="1" style="stop-color:#FFFFFF"/>
				</linearGradient>
				<path id="XMLID_12292_" fill="url(#XMLID_33_)" d="M36.8,89.7c0,0,4.7,2.3,13,6.4c2.1,1,4.4,2.3,6.9,3.7
					c2.5,1.4,5.2,2.9,8.1,4.5c5.8,3.2,12.3,6.8,19.4,10.7c7.1,4,14.8,8.2,22.9,12.8c8.1,4.6,16.7,9.4,25.6,14.4
					c17.8,10,36.7,20.7,55.6,31.3c37.9,21.4,75.8,42.7,104.2,58.8c28.4,15.9,47.3,26.6,47.3,26.6s-18.9,10.6-47.3,26.6
					c-28.4,16-66.3,37.4-104.2,58.8c-18.9,10.7-37.9,21.3-55.6,31.3c-8.9,5-17.5,9.8-25.6,14.4c-8.1,4.6-15.8,8.8-22.9,12.8
					c-7.1,3.9-13.6,7.5-19.4,10.7c-2.9,1.6-5.6,3.1-8.1,4.5c-2.5,1.4-4.8,2.7-6.9,3.7c-8.3,4.1-13,6.4-13,6.4V89.7z"/>
			</g>
			<g id="XMLID_12266_">
				<linearGradient id="XMLID_34_" gradientUnits="userSpaceOnUse" x1="270.7762" y1="348.784" x2="429.7921" y2="348.784">
					<stop  offset="0" style="stop-color:#BCBABA"/>
					<stop  offset="1" style="stop-color:#FFFFFF"/>
				</linearGradient>
				<path id="XMLID_12296_" fill="url(#XMLID_34_)" d="M270.8,260c0,0,2.5,1.3,6.8,3.6c2.2,1.1,4.8,2.6,7.8,4.3
					c3,1.7,6.4,3.6,10.2,5.6c7.5,4.1,16.2,8.9,25.5,14.2c9.3,5.2,19.3,10.8,29.2,16.4c39.8,22.4,79.5,44.7,79.5,44.7
					s-39.8,22.4-79.5,44.7c-9.9,5.6-19.9,11.2-29.2,16.4c-9.3,5.3-18,10.1-25.5,14.2c-3.7,2.1-7.1,4-10.2,5.6
					c-3,1.7-5.7,3.2-7.8,4.3c-4.3,2.3-6.8,3.6-6.8,3.6V260z"/>
			</g>
			<g id="XMLID_12270_">
				<linearGradient id="XMLID_35_" gradientUnits="userSpaceOnUse" x1="450.7942" y1="204.7696" x2="603.8095" y2="204.7696">
					<stop  offset="0" style="stop-color:#BCBABA"/>
					<stop  offset="1" style="stop-color:#FFFFFF"/>
				</linearGradient>
				<path id="XMLID_12300_" fill="url(#XMLID_35_)" d="M450.8,119.2c0,0,9.6,5.2,23.9,13c14.3,8,33.5,18.7,52.6,29.4
					c38.3,21.6,76.5,43.1,76.5,43.1s-38.3,21.6-76.5,43.1c-19.1,10.7-38.3,21.4-52.6,29.4c-14.3,7.8-23.9,13-23.9,13V119.2z"/>
			</g>
			<g id="XMLID_12274_">
				<linearGradient id="XMLID_36_" gradientUnits="userSpaceOnUse" x1="474.7966" y1="282.7774" x2="789.8281" y2="282.7774">
					<stop  offset="0" style="stop-color:#BCBABA"/>
					<stop  offset="1" style="stop-color:#FFFFFF"/>
				</linearGradient>
				<path id="XMLID_12304_" fill="url(#XMLID_36_)" d="M789.8,460.2c0,0-78.8-44.3-157.5-88.5c-78.8-44.4-157.5-88.8-157.5-88.8
					s78.8-44.4,157.5-88.8c78.8-44.3,157.5-88.5,157.5-88.5V460.2z"/>
			</g>
			<g id="XMLID_12278_">
				<linearGradient id="XMLID_37_" gradientUnits="userSpaceOnUse" x1="54.7546" y1="582.8074" x2="234.7726" y2="582.8074">
					<stop  offset="0" style="stop-color:#BCBABA"/>
					<stop  offset="1" style="stop-color:#FFFFFF"/>
				</linearGradient>
				<path id="XMLID_12308_" fill="url(#XMLID_37_)" d="M54.8,481.8c0,0,11.3,6.3,28.1,15.7c8.4,4.7,18.3,10.2,28.8,16.1
					c10.5,5.9,21.8,12.3,33.1,18.6c45,25.3,90,50.6,90,50.6s-45,25.3-90,50.6c-11.3,6.3-22.5,12.6-33.1,18.6
					c-10.5,5.9-20.4,11.4-28.8,16.1c-16.9,9.4-28.1,15.7-28.1,15.7V481.8z"/>
			</g>
			<g id="XMLID_12286_">
				<linearGradient id="XMLID_38_" gradientUnits="userSpaceOnUse" x1="462.7954" y1="792.8284" x2="711.8203" y2="792.8284">
					<stop  offset="0" style="stop-color:#BCBABA"/>
					<stop  offset="1" style="stop-color:#FFFFFF"/>
				</linearGradient>
				<polygon id="XMLID_12316_" fill="url(#XMLID_38_)" points="462.8,653.1 711.8,792.8 462.8,932.5 				"/>
			</g>
			<g id="XMLID_12294_">
				<linearGradient id="XMLID_39_" gradientUnits="userSpaceOnUse" x1="987.8479" y1="282.7774" x2="1398.889" y2="282.7774">
					<stop  offset="0" style="stop-color:#BCBABA"/>
					<stop  offset="1" style="stop-color:#FFFFFF"/>
				</linearGradient>
				<path id="XMLID_12324_" fill="url(#XMLID_39_)" d="M1398.9,512.3c0,0-6.4-3.4-17.7-9.4c-5.6-3-12.4-6.7-20.3-10.9
					c-7.8-4.2-16.7-8.9-26.3-14.3c-19.3-10.7-41.7-23.2-65.8-36.5c-6-3.4-12.1-6.8-18.3-10.2c-6.2-3.5-12.5-7-18.8-10.6
					c-12.6-7.1-25.5-14.4-38.3-21.6c-102.8-58-205.5-116-205.5-116s102.8-58,205.5-116c12.8-7.2,25.7-14.5,38.3-21.6
					c6.3-3.6,12.6-7.1,18.8-10.6c6.2-3.5,12.3-6.9,18.3-10.2c24.1-13.4,46.6-25.8,65.8-36.5c9.6-5.4,18.5-10.1,26.3-14.3
					c7.8-4.2,14.7-7.9,20.3-10.9c11.2-6,17.7-9.4,17.7-9.4V512.3z"/>
			</g>
			<g id="XMLID_12302_">
				<linearGradient id="XMLID_40_" gradientUnits="userSpaceOnUse" x1="969.8461" y1="1218.871" x2="1320.8812" y2="1218.871">
					<stop  offset="0" style="stop-color:#BCBABA"/>
					<stop  offset="1" style="stop-color:#FFFFFF"/>
				</linearGradient>
				<path id="XMLID_12332_" fill="url(#XMLID_40_)" d="M1320.9,1415.6c0,0-5.5-3-15.1-8.2c-4.8-2.6-10.6-5.8-17.3-9.5
					c-6.7-3.6-14.2-7.9-22.5-12.5c-32.9-18.5-76.8-43.1-120.7-67.8c-87.8-49.4-175.5-98.7-175.5-98.7s87.8-49.4,175.5-98.7
					c43.9-24.6,87.8-49.3,120.7-67.8c8.2-4.6,15.8-8.9,22.5-12.5c6.7-3.7,12.5-6.8,17.3-9.5c9.6-5.2,15.1-8.2,15.1-8.2V1415.6z"/>
			</g>
			<g id="XMLID_12306_">
				<linearGradient id="XMLID_41_" gradientUnits="userSpaceOnUse" x1="606.8098" y1="1149.8641" x2="1002.8494" y2="1149.8641">
					<stop  offset="0" style="stop-color:#BCBABA"/>
					<stop  offset="1" style="stop-color:#FFFFFF"/>
				</linearGradient>
				<path id="XMLID_12335_" fill="url(#XMLID_41_)" d="M606.8,928.7c0,0,6.2,3.3,17,9.1c5.4,2.9,12,6.4,19.5,10.5
					c3.8,2,7.8,4.2,12,6.5c4.2,2.3,8.7,4.8,13.3,7.4c18.6,10.3,40.2,22.4,63.4,35.3c11.6,6.5,23.6,13.2,35.8,20
					c12.2,6.9,24.6,13.8,36.9,20.8c99,55.8,198,111.6,198,111.6s-99,55.8-198,111.6c-12.4,7-24.8,13.9-36.9,20.8
					c-12.2,6.8-24.2,13.5-35.8,20c-23.2,12.9-44.9,25-63.4,35.3c-4.6,2.6-9.1,5-13.3,7.4c-4.2,2.3-8.2,4.5-12,6.5
					c-7.5,4.1-14.1,7.6-19.5,10.5c-10.8,5.8-17,9.1-17,9.1V928.7z"/>
			</g>
			<g id="XMLID_12310_">
				<linearGradient id="XMLID_42_" gradientUnits="userSpaceOnUse" x1="831.8323" y1="1020.8512" x2="1260.8752" y2="1020.8512">
					<stop  offset="0" style="stop-color:#BCBABA"/>
					<stop  offset="1" style="stop-color:#FFFFFF"/>
				</linearGradient>
				<path id="XMLID_12339_" fill="url(#XMLID_42_)" d="M1260.9,1261.1c0,0-26.8-14.7-67-36.7c-10.1-5.5-20.9-11.5-32.5-17.9
					c-11.5-6.4-23.7-13.2-36.2-20.3c-25.1-14.1-52-29.1-78.8-44.2c-13.4-7.5-26.8-15.1-40-22.5c-13.2-7.5-26.2-14.8-38.8-21.9
					c-25.1-14.2-48.6-27.5-68.7-38.9c-40.2-22.7-67-37.8-67-37.8s26.8-15.1,67-37.8c20.1-11.4,43.6-24.7,68.7-38.9
					c12.6-7.1,25.6-14.5,38.8-21.9c13.2-7.4,26.6-15,40-22.5c26.8-15,53.6-30.1,78.8-44.2c12.6-7,24.7-13.8,36.2-20.3
					c11.5-6.3,22.4-12.4,32.5-17.9c40.2-22,67-36.7,67-36.7V1261.1z"/>
			</g>
			<g id="XMLID_12318_">
				<linearGradient id="XMLID_43_" gradientUnits="userSpaceOnUse" x1="186.7678" y1="468.796" x2="504.7996" y2="468.796">
					<stop  offset="0" style="stop-color:#BCBABA"/>
					<stop  offset="1" style="stop-color:#FFFFFF"/>
				</linearGradient>
				<path id="XMLID_12347_" fill="url(#XMLID_43_)" d="M186.8,291.4c0,0,5,2.6,13.7,7.1c2.2,1.1,4.6,2.5,7.2,3.9
					c2.6,1.5,5.5,3,8.5,4.7c6.1,3.4,12.9,7.2,20.3,11.3c14.9,8.3,32.3,18,50.9,28.3c4.7,2.6,9.4,5.2,14.2,7.9
					c4.8,2.7,9.6,5.4,14.5,8.2c9.8,5.5,19.7,11.1,29.7,16.7c39.8,22.3,79.5,44.7,109.3,61.5c29.8,16.7,49.7,27.8,49.7,27.8
					s-19.9,11.1-49.7,27.8c-29.8,16.8-69.6,39.1-109.3,61.5c-9.9,5.6-19.9,11.2-29.7,16.7c-4.9,2.8-9.7,5.5-14.5,8.2
					c-4.8,2.7-9.5,5.3-14.2,7.9c-18.6,10.4-36,20.1-50.9,28.3c-7.5,4.1-14.3,7.9-20.3,11.3c-3,1.7-5.9,3.3-8.5,4.7
					c-2.6,1.4-5,2.8-7.2,3.9c-8.7,4.5-13.7,7.1-13.7,7.1V291.4z"/>
			</g>
			<g id="XMLID_12326_">
				<linearGradient id="XMLID_44_" gradientUnits="userSpaceOnUse" x1="21.7513" y1="834.8326" x2="354.7846" y2="834.8326">
					<stop  offset="0" style="stop-color:#BCBABA"/>
					<stop  offset="1" style="stop-color:#FFFFFF"/>
				</linearGradient>
				<path id="XMLID_12342_" fill="url(#XMLID_44_)" d="M354.8,1021c0,0-5.2-2.8-14.3-7.7c-4.6-2.5-10.1-5.5-16.4-8.9
					c-6.3-3.4-13.5-7.4-21.3-11.7c-15.6-8.7-33.8-18.8-53.3-29.6c-9.8-5.4-19.8-11.1-30.1-16.8c-10.2-5.8-20.7-11.7-31.1-17.5
					c-83.3-47-166.5-94-166.5-94s83.3-47,166.5-94c10.4-5.9,20.8-11.7,31.1-17.5c10.2-5.7,20.3-11.3,30.1-16.8
					c19.5-10.8,37.7-20.9,53.3-29.6c7.8-4.3,15-8.3,21.3-11.7c6.3-3.4,11.9-6.4,16.4-8.9c9.1-4.9,14.3-7.7,14.3-7.7V1021z"/>
			</g>
			<g id="XMLID_12330_">
				<linearGradient id="XMLID_45_" gradientUnits="userSpaceOnUse" x1="-125.2634" y1="999.8761" x2="273.7765" y2="999.8761">
					<stop  offset="0" style="stop-color:#BCBABA"/>
					<stop  offset="1" style="stop-color:#FFFFFF"/>
				</linearGradient>
				<path id="XMLID_12338_" fill="url(#XMLID_45_)" d="M-125.3,776.4c0,0,1.6,0.7,4.5,2.1c2.9,1.3,7.2,3.6,12.7,6.6
					c5.5,2.9,12.1,6.5,19.7,10.6c3.8,2.1,7.8,4.2,12.1,6.6c4.3,2.4,8.7,4.9,13.4,7.5c18.7,10.5,40.5,22.7,63.9,35.8
					c11.7,6.6,23.8,13.3,36,20.3c12.3,7,24.7,14,37.2,21.1c49.9,28.3,99.8,56.6,137.2,77.8c37.4,21.1,62.3,35.2,62.3,35.2
					s-24.9,14.1-62.3,35.2c-37.4,21.2-87.3,49.5-137.2,77.8c-12.5,7.1-24.9,14.1-37.2,21.1c-12.3,7-24.4,13.7-36,20.3
					c-23.4,13.1-45.2,25.3-63.9,35.8c-4.7,2.6-9.2,5.1-13.4,7.5c-4.3,2.3-8.3,4.5-12.1,6.6c-7.6,4.1-14.2,7.7-19.7,10.6
					c-5.5,2.9-9.7,5.3-12.7,6.6c-2.9,1.4-4.5,2.1-4.5,2.1V776.4z"/>
			</g>
		</g>
	</g>
</g>
</svg>
